<svg width="39" height="41" viewBox="0 0 39 41" fill="none" xmlns="http://www.w3.org/2000/svg">
<path d="M12.7943 13.3372C12.8174 16.2923 13.6022 19.1915 15.0725 21.7523C16.5432 24.3137 18.6499 26.4495 21.188 27.9511C23.726 29.4528 26.6086 30.2688 29.5548 30.3191C32.1811 30.364 34.7775 29.7991 37.1433 28.6742C35.8529 31.3481 33.9494 33.6817 31.5844 35.4802C28.9561 37.479 25.8503 38.7464 22.5801 39.1556C19.3099 39.5648 15.9899 39.1013 12.9543 37.8116C9.91868 36.5219 7.27421 34.4512 5.28771 31.8074C3.30118 29.1636 2.04294 26.0401 1.64033 22.7514C1.23773 19.4627 1.70508 16.1256 2.99506 13.0765C4.28501 10.0274 6.3518 7.37432 8.98654 5.38396C11.3861 3.57125 14.1798 2.36641 17.1308 1.86464C15.8315 3.30709 14.7891 4.96602 14.0518 6.7689C13.1998 8.85215 12.7723 11.0855 12.7943 13.3372Z" stroke="#C57142" stroke-width="3"/>
</svg>
