<svg width="51" height="51" viewBox="0 0 51 51" fill="none" xmlns="http://www.w3.org/2000/svg">
<path d="M33.947 16.8237C31.6887 13.5915 27.2283 12.6328 24.0034 14.6881L18.3398 18.298C17.5746 18.7793 16.9183 19.415 16.4128 20.1644C15.9074 20.9138 15.5638 21.7605 15.4042 22.6502C15.134 24.1489 15.3714 25.6948 16.0789 27.0433C15.594 27.7787 15.2633 28.6048 15.1069 29.4717C14.9455 30.3793 14.967 31.3101 15.1701 32.2093C15.3733 33.1086 15.7539 33.9582 16.2897 34.7084C18.548 37.941 23.0087 38.8993 26.2331 36.844L31.8969 33.2342C32.6621 32.7529 33.3184 32.1172 33.8239 31.3677C34.3294 30.6183 34.6729 29.7717 34.8325 28.8819C35.1025 27.3832 34.8652 25.8373 34.1581 24.4886C34.6427 23.7532 34.9732 22.9272 35.1296 22.0605C35.2911 21.1528 35.2696 20.222 35.0665 19.3228C34.8634 18.4235 34.4829 17.5739 33.947 16.8237Z" fill="#C57142"/>
<path d="M23.4501 35.0126C22.5588 35.2443 21.6178 35.1969 20.7543 34.8768C19.8908 34.5567 19.1463 33.9793 18.6214 33.2226C18.2992 32.7716 18.0704 32.2607 17.9482 31.7201C17.826 31.1794 17.8131 30.6198 17.91 30.074C17.9428 29.8948 17.988 29.7182 18.0453 29.5453L18.1519 29.2195L18.4423 29.4326C19.1121 29.9251 19.8612 30.2996 20.6572 30.54L20.8676 30.6038L20.8482 30.814C20.8225 31.1129 20.9034 31.4113 21.0767 31.6561C21.2347 31.8842 21.459 32.0583 21.7192 32.1548C21.9794 32.2513 22.263 32.2656 22.5316 32.1957C22.6544 32.1631 22.7716 32.1118 22.879 32.0437L28.5431 28.4328C28.6816 28.3455 28.8005 28.2304 28.8921 28.0946C28.9837 27.9589 29.046 27.8055 29.0751 27.6444C29.1041 27.4798 29.1001 27.3112 29.0633 27.1482C29.0264 26.9852 28.9575 26.8312 28.8605 26.6952C28.7024 26.4671 28.4782 26.293 28.218 26.1965C27.9578 26.0999 27.6743 26.0855 27.4056 26.1552C27.2827 26.1878 27.1656 26.2391 27.0582 26.3072L24.8967 27.685C24.5411 27.911 24.153 28.0813 23.7458 28.19C22.8545 28.4217 21.9136 28.3743 21.0501 28.0542C20.1866 27.7341 19.4421 27.1568 18.9172 26.4001C18.5949 25.9491 18.3659 25.4383 18.2437 24.8976C18.1216 24.3569 18.1086 23.7972 18.2056 23.2515C18.3018 22.7164 18.5087 22.2073 18.813 21.7567C19.1173 21.3061 19.5123 20.924 19.9727 20.6349L25.6361 17.0252C25.9917 16.7989 26.3798 16.6283 26.787 16.5195C27.6783 16.2878 28.6192 16.3352 29.4828 16.6553C30.3463 16.9754 31.0908 17.5527 31.6157 18.3094C31.9379 18.7605 32.1668 19.2713 32.289 19.812C32.4112 20.3527 32.4242 20.9123 32.3273 21.4581C32.294 21.6375 32.2485 21.8144 32.1911 21.9877L32.0845 22.3134L31.7944 22.1008C31.1246 21.6082 30.3755 21.2337 29.5795 20.9934L29.3689 20.9295L29.3884 20.7193C29.4139 20.4205 29.333 20.1222 29.16 19.8772C29.002 19.6493 28.7779 19.4754 28.5179 19.3789C28.2579 19.2824 27.9746 19.268 27.7062 19.3376C27.5833 19.3703 27.4661 19.4215 27.3587 19.4896L21.694 23.0993C21.5555 23.1865 21.4366 23.3016 21.3451 23.4373C21.2535 23.5731 21.1912 23.7264 21.1622 23.8875C21.133 24.052 21.1369 24.2207 21.1737 24.3837C21.2105 24.5467 21.2794 24.7008 21.3763 24.8369C21.5345 25.0649 21.7587 25.239 22.0189 25.3356C22.2791 25.4321 22.5626 25.4466 22.8312 25.3769C22.9541 25.3442 23.0712 25.2929 23.1787 25.2249L25.3397 23.8478C25.6952 23.6214 26.0834 23.4509 26.4906 23.3422C27.3816 23.1106 28.3223 23.158 29.1856 23.4778C30.0489 23.7977 30.7932 24.3748 31.3182 25.1311C31.6405 25.5821 31.8694 26.0929 31.9916 26.6336C32.1138 27.1743 32.1268 27.734 32.0298 28.2797C31.9337 28.8148 31.7271 29.324 31.4231 29.7747C31.1191 30.2253 30.7245 30.6077 30.2644 30.8972L24.601 34.5068C24.2454 34.7332 23.8573 34.9038 23.4501 35.0126Z" fill="white"/>
<circle cx="25.5" cy="25.5001" r="24" stroke="#C57142" stroke-width="3"/>
</svg>
