<svg width="62" height="44" viewBox="0 0 62 44" fill="none" xmlns="http://www.w3.org/2000/svg">
<path fill-rule="evenodd" clip-rule="evenodd" d="M0.62793 39.0383V4.55133C0.62793 2.03802 2.66746 0 5.17926 0H57.294C59.8027 0 61.8483 2.03501 61.8483 4.55133V39.0383C61.8483 41.5501 59.8073 43.5896 57.294 43.5896H5.17926C2.66746 43.5896 0.62793 41.5501 0.62793 39.0383ZM58.9695 39.0383V4.55133C58.9695 3.63234 58.2205 2.8803 57.294 2.8803H5.17926C4.25726 2.8803 3.50974 3.62933 3.50974 4.55133V39.0383C3.50974 39.9588 4.25726 40.7078 5.17926 40.7078H57.294C58.2175 40.7078 58.9695 39.9588 58.9695 39.0383Z" fill="#C57142"/>
<path fill-rule="evenodd" clip-rule="evenodd" d="M5.68469 5.77263C5.68469 5.01156 6.30588 4.39038 7.06694 4.39038C7.8295 4.39038 8.44768 5.01156 8.44768 5.77263C8.44768 6.53218 7.8295 7.15186 7.06694 7.15186C6.30588 7.15186 5.68469 6.53218 5.68469 5.77263ZM9.59529 5.77263C9.59529 5.01156 10.215 4.39038 10.976 4.39038C11.7371 4.39038 12.3583 5.01156 12.3583 5.77263C12.3583 6.53218 11.7371 7.15186 10.976 7.15186C10.215 7.15186 9.59529 6.53218 9.59529 5.77263ZM13.5044 5.77263C13.5044 5.01156 14.1241 4.39038 14.8836 4.39038C15.6447 4.39038 16.2659 5.01156 16.2659 5.77263C16.2659 6.53218 15.6447 7.15186 14.8836 7.15186C14.1241 7.15186 13.5044 6.53218 13.5044 5.77263Z" fill="#C57142"/>
<path fill-rule="evenodd" clip-rule="evenodd" d="M34.0002 34.4163C34.0002 28.8271 38.532 24.2924 44.1242 24.2924C49.7163 24.2924 54.2511 28.8271 54.2511 34.4163C54.2511 34.857 53.8886 35.215 53.4509 35.215H34.8004C34.3597 35.215 34.0002 34.857 34.0002 34.4163ZM44.1242 25.8927C39.7097 25.8927 36.0804 29.2528 35.6427 33.583H52.6057C52.1665 29.2528 48.5341 25.8927 44.1242 25.8927Z" fill="#C57142"/>
<path fill-rule="evenodd" clip-rule="evenodd" d="M42.6909 34.5336L39.7805 29.0844L44.8658 32.646L42.6909 34.5336Z" fill="#C57142"/>
<path fill-rule="evenodd" clip-rule="evenodd" d="M44.1197 31.8127C45.3696 31.8127 46.3879 32.831 46.3879 34.0809C46.3879 35.3308 45.3696 36.349 44.1197 36.349C42.8698 36.349 41.8516 35.3308 41.8516 34.0809C41.8516 32.831 42.8698 31.8127 44.1197 31.8127Z" fill="#C57142"/>
<path fill-rule="evenodd" clip-rule="evenodd" d="M33.9973 19.8613C33.9973 14.2737 38.5291 9.73889 44.1243 9.73889C49.7134 9.73889 54.2482 14.2737 54.2482 19.8613C54.2482 20.3035 53.8857 20.663 53.4465 20.663H34.7975C34.3568 20.663 33.9973 20.3035 33.9973 19.8613ZM44.1243 11.3392C39.7068 11.3392 36.0775 14.6993 35.6398 19.0311H52.6012C52.1635 14.6993 48.5312 11.3392 44.1243 11.3392Z" fill="#C57142"/>
<path fill-rule="evenodd" clip-rule="evenodd" d="M45.5575 19.9816L48.4664 14.5293L43.3811 18.0924L45.5575 19.9816Z" fill="#C57142"/>
<path fill-rule="evenodd" clip-rule="evenodd" d="M44.1228 17.2593C42.8729 17.2593 41.8546 18.2775 41.8546 19.5274C41.8546 20.7773 42.8729 21.7956 44.1228 21.7956C45.3726 21.7956 46.3909 20.7773 46.3909 19.5274C46.3909 18.2775 45.3726 17.2593 44.1228 17.2593Z" fill="#C57142"/>
<path fill-rule="evenodd" clip-rule="evenodd" d="M25.1897 34.5757V12.4402C25.1897 12.0025 25.5477 11.64 25.9899 11.64C26.4291 11.64 26.79 12.0025 26.79 12.4402V34.5757C26.79 35.0179 26.4291 35.3758 25.9899 35.3758C25.5477 35.3758 25.1897 35.0179 25.1897 34.5757Z" fill="#C57142"/>
<path fill-rule="evenodd" clip-rule="evenodd" d="M22.5514 28.5653C22.5514 26.7815 24.0058 25.327 25.7897 25.327C27.5735 25.327 29.0279 26.7815 29.0279 28.5653C29.0279 30.3491 27.5735 31.8036 25.7897 31.8036C24.0058 31.8036 22.5514 30.3491 22.5514 28.5653Z" fill="#C57142"/>
<path fill-rule="evenodd" clip-rule="evenodd" d="M18.5099 35.9519H14.5467V31.9826H18.5099V35.9519ZM18.5099 29.17H14.5467V25.2113H18.5099V29.17ZM18.5099 22.3881H14.5467V18.4324H18.5099V22.3881ZM18.5099 15.6093H14.5467V11.64H18.5099V15.6093ZM12.1898 35.9519H8.22205V31.9826H12.1898V35.9519ZM12.1898 29.17H8.22205V25.2113H12.1898V29.17ZM12.1898 22.3881H8.22205V18.4324H12.1898V22.3881ZM12.1898 15.6093H8.22205V11.64H12.1898V15.6093Z" fill="#C57142"/>
</svg>
