<svg width="44" height="32" viewBox="0 0 44 32" fill="none" xmlns="http://www.w3.org/2000/svg">
<path d="M8.64411 0.475946C9.27873 1.11056 9.27873 2.13945 8.64411 2.77404C1.45197 9.96621 1.45197 21.6271 8.64411 28.8191C9.27873 29.4537 9.27873 30.4827 8.64411 31.1173C8.00952 31.7519 6.98063 31.7519 6.34601 31.1173C-2.11534 22.6558 -2.11534 8.93732 6.34601 0.475946C6.98063 -0.158649 8.00952 -0.158649 8.64411 0.475946ZM36.9874 0.475946C45.4486 8.93732 45.4486 22.6558 36.9874 31.1173C36.3528 31.7519 35.3238 31.7519 34.6892 31.1173C34.0546 30.4827 34.0546 29.4537 34.6892 28.8191C41.8814 21.6271 41.8814 9.96621 34.6892 2.77404C34.0546 2.13945 34.0546 1.11056 34.6892 0.475946C35.3238 -0.158649 36.3528 -0.158649 36.9874 0.475946ZM14.7724 6.60421C15.407 7.23881 15.407 8.26771 14.7724 8.90231C10.9648 12.7099 10.9648 18.8832 14.7724 22.6909C15.407 23.3255 15.407 24.3545 14.7724 24.9891C14.1378 25.6237 13.1089 25.6237 12.4743 24.9891C7.39746 19.9121 7.39746 11.681 12.4743 6.60421C13.1089 5.96962 14.1378 5.96962 14.7724 6.60421ZM30.859 6.60421C35.9359 11.681 35.9359 19.9121 30.859 24.9891C30.2243 25.6237 29.1956 25.6237 28.561 24.9891C27.9264 24.3545 27.9264 23.3255 28.561 22.6909C32.3685 18.8832 32.3685 12.7099 28.561 8.90231C27.9264 8.26771 27.9264 7.23881 28.561 6.60421C29.1956 5.96962 30.2243 5.96962 30.859 6.60421ZM21.6667 12.5466C23.4615 12.5466 24.9167 14.0017 24.9167 15.7966C24.9167 17.5914 23.4615 19.0466 21.6667 19.0466C19.8718 19.0466 18.4167 17.5914 18.4167 15.7966C18.4167 14.0017 19.8718 12.5466 21.6667 12.5466Z" fill="#C57142"/>
</svg>
