<svg width="61" height="61" viewBox="0 0 61 61" fill="none" xmlns="http://www.w3.org/2000/svg">
<path d="M21 30.0001L27.6596 37.0001L40 24.0001" stroke="#C57142" stroke-width="3" stroke-linecap="round"/>
<path d="M29.7845 2.73285C30.1769 2.33103 30.8231 2.33103 31.2155 2.73285L38.4897 10.1825C38.6808 10.3782 38.9437 10.487 39.2171 10.4838L49.6285 10.3598C50.1901 10.3531 50.647 10.81 50.6403 11.3716L50.5163 21.783C50.5131 22.0565 50.622 22.3193 50.8176 22.5104L58.2673 29.7846C58.6691 30.177 58.6691 30.8232 58.2673 31.2156L50.8176 38.4899C50.622 38.6809 50.5131 38.9438 50.5163 39.2173L50.6403 49.6286C50.647 50.1902 50.1901 50.6472 49.6285 50.6405L39.2171 50.5165C38.9437 50.5132 38.6808 50.6221 38.4897 50.8177L31.2155 58.2674C30.8231 58.6692 30.1769 58.6692 29.7845 58.2674L22.5103 50.8177C22.3192 50.6221 22.0563 50.5132 21.7829 50.5165L11.3715 50.6405C10.8099 50.6472 10.353 50.1902 10.3597 49.6286L10.4837 39.2173C10.4869 38.9438 10.378 38.6809 10.1824 38.4899L2.73273 31.2156C2.33091 30.8232 2.33091 30.177 2.73273 29.7846L10.1824 22.5104C10.378 22.3193 10.4869 22.0565 10.4837 21.783L10.3597 11.3716C10.353 10.81 10.8099 10.3531 11.3715 10.3598L21.7829 10.4838C22.0563 10.487 22.3192 10.3782 22.5103 10.1825L29.7845 2.73285Z" stroke="#C57142" stroke-width="3"/>
</svg>
